<?xml version="1.0" encoding="UTF-8" standalone="no"?>
<svg
   xmlns:dc="http://purl.org/dc/elements/1.1/"
   xmlns:cc="http://creativecommons.org/ns#"
   xmlns:rdf="http://www.w3.org/1999/02/22-rdf-syntax-ns#"
   xmlns:svg="http://www.w3.org/2000/svg"
   xmlns="http://www.w3.org/2000/svg"
   xmlns:sodipodi="http://sodipodi.sourceforge.net/DTD/sodipodi-0.dtd"
   xmlns:inkscape="http://www.inkscape.org/namespaces/inkscape"
   width="137.51816mm"
   height="171.78268mm"
   viewBox="0 0 137.51816 171.78268"
   version="1.1"
   id="svg8"
   inkscape:version="1.0.1 (3bc2e813f5, 2020-09-07)"
   sodipodi:docname="welder-ico.svg">
  <defs
     id="defs2" />
  <sodipodi:namedview
     id="base"
     pagecolor="#ffffff"
     bordercolor="#666666"
     borderopacity="1.0"
     inkscape:pageopacity="0.0"
     inkscape:pageshadow="2"
     inkscape:zoom="0.63823716"
     inkscape:cx="691.48871"
     inkscape:cy="383.04325"
     inkscape:document-units="mm"
     inkscape:current-layer="layer1"
     inkscape:document-rotation="0"
     showgrid="false"
     inkscape:window-width="1920"
     inkscape:window-height="1017"
     inkscape:window-x="1912"
     inkscape:window-y="-8"
     inkscape:window-maximized="1" />
  <metadata
     id="metadata5">
    <rdf:RDF>
      <cc:Work
         rdf:about="">
        <dc:format>image/svg+xml</dc:format>
        <dc:type
           rdf:resource="http://purl.org/dc/dcmitype/StillImage" />
        <dc:title></dc:title>
      </cc:Work>
    </rdf:RDF>
  </metadata>
  <g
     inkscape:label="Layer 1"
     inkscape:groupmode="layer"
     id="layer1"
     transform="translate(532.56201,100.40507)">
    <path
       style="fill:#333333;fill-opacity:1;stroke-width:0.352778"
       d="m -235.98314,164.33236 c -0.90741,-0.50596 -12.91502,-12.23316 -13.48125,-13.16643 -0.31538,-0.5198 -0.43294,-4.24466 -0.44538,-14.11176 l -0.0169,-13.40556 -4.18016,-3.95068 c -2.29909,-2.17287 -4.44023,-4.49874 -4.7581,-5.16859 -0.46327,-0.97628 -0.57794,-2.37973 -0.57794,-7.07363 V 101.6 h -2.83355 c -3.13206,0 -4.99986,-0.58064 -5.62495,-1.748624 -0.27526,-0.51434 -0.39203,-3.916063 -0.37161,-10.825506 l 0.0298,-10.075485 -8.829,-15.891053 c -7.70132,-13.861384 -8.82899,-16.084653 -8.82899,-17.40684 v -1.515787 l 7.58472,-7.14398 c 4.1716,-3.929186 7.58472,-7.271823 7.58472,-7.428075 0,-0.156256 -2.54788,-0.284103 -5.66196,-0.284103 -4.25093,0 -5.908,-0.127225 -6.64919,-0.510515 -0.91581,-0.473583 -1.57324,-1.380388 -5.51237,-7.603374 -0.79832,-1.261181 -1.98323,-3.126493 -2.63312,-4.145139 L -292.37,15.169435 h -4.8598 c -4.62763,0 -4.9071,-0.04065 -5.84962,-0.85084 l -0.98981,-0.85084 -0.10566,-8.6647098 c -0.0717,-5.88237 0.0205,-8.90037 0.2871,-9.3986 0.21601,-0.40363 0.89856,-1.04229 1.51677,-1.41924 1.1025,-0.67224 2.39983,-0.68536 67.79902,-0.68536 65.39918,0 66.69651,0.0131 67.79901,0.68536 0.61821,0.37695 1.30076,1.01561 1.51678,1.41924 0.26664,0.49823 0.35883,3.51623 0.2871,9.3986 l -0.10567,8.6647098 -0.98981,0.85084 c -0.94252,0.810192 -1.22198,0.85084 -5.84961,0.85084 h -4.85981 l -1.18162,1.852084 c -0.6499,1.018646 -1.8348,2.883958 -2.63313,4.145139 -3.93913,6.222986 -4.59655,7.129791 -5.51237,7.603374 -0.74119,0.38329 -2.39825,0.510515 -6.64919,0.510515 -3.11407,0 -5.66196,0.139122 -5.66196,0.309164 0,0.170039 2.02406,2.191043 4.49792,4.491119 10.29136,9.568438 10.67153,9.982243 10.67153,11.61576 0,1.264563 -1.24255,3.708104 -8.8285,17.361843 l -8.8285,15.890152 0.0289,10.077194 c 0.0197,6.90275 -0.0975,10.313201 -0.37212,10.826405 -0.62468,1.167186 -2.49313,1.747816 -5.62452,1.747816 h -2.83356 v 5.85571 c 0,4.6939 -0.11467,6.09735 -0.57794,7.07363 -0.31786,0.66985 -2.459,2.99572 -4.75809,5.16859 l -4.18015,3.95068 -0.0169,13.40556 c -0.0125,9.8671 -0.13,13.59196 -0.44538,14.11176 -0.61715,1.01718 -12.62861,12.7051 -13.54625,13.18137 -0.96071,0.49862 -1.84478,0.49383 -2.75722,-0.0149 z m 5.76313,-12.05089 c 3.85649,-3.86745 3.98403,-4.04439 3.8748,-5.37538 l -0.11293,-1.3763 -7.9375,-4.30404 c -4.36563,-2.36721 -8.05657,-4.31392 -8.20209,-4.326 -0.14552,-0.0121 -0.26458,2.55523 -0.26458,5.70515 v 5.72712 l 3.96299,3.97426 c 2.17965,2.18585 4.12693,3.97428 4.32729,3.97428 0.20035,0 2.15877,-1.79959 4.35202,-3.99909 z m 3.93826,-20.51897 v -6.17361 h -8.29028 -8.29028 v 1.73393 1.73393 l 8.02569,4.40512 c 4.41414,2.42281 8.14476,4.42067 8.29028,4.43968 0.14552,0.019 0.26459,-2.74356 0.26459,-6.13905 z m 5.88097,-16.48001 3.66202,-3.60362 -0.0972,-5.12763 -0.0972,-5.12763 h -17.63889 -17.63889 l -0.0972,5.12763 -0.0972,5.12763 3.66202,3.60362 3.66202,3.60362 h 10.50923 10.50923 z m -17.52264,-24.199826 c 0,-3.33235 0.037,-3.497217 0.98944,-4.409723 0.72726,-0.696761 1.35313,-0.947946 2.36195,-0.947946 1.00882,0 1.63468,0.251185 2.36194,0.947946 0.95245,0.912506 0.98945,1.077373 0.98945,4.409723 v 3.461776 h 11.81805 11.81806 v -6.702778 -6.702778 h -6.37714 -6.37714 l -1.03119,-1.031198 -1.0312,-1.031194 V 68.28963 57.502771 h -12.17083 -12.17084 V 68.28963 79.076492 l -1.0312,1.031194 -1.03119,1.031198 h -6.37714 -6.37713 v 6.702778 6.702778 h 11.81805 11.81806 z M -253.44565,63.561487 V 52.686871 l 0.91037,-0.855246 0.91037,-0.855243 h 17.05288 17.05288 l 0.91036,0.855243 0.91037,0.855246 v 10.874616 10.874619 h 4.71946 4.71947 l 2.477,-4.497917 c 1.36235,-2.473854 4.79692,-8.698548 7.63238,-13.832654 2.83547,-5.134106 5.10618,-9.48235 5.04604,-9.662764 -0.0601,-0.180414 -4.07066,-4.113759 -8.91226,-8.740768 l -8.80292,-8.412742 h -25.75278 -25.75278 l -8.80292,8.412742 c -4.84161,4.627009 -8.85213,8.560354 -8.91227,8.740768 -0.0601,0.180414 2.21058,4.528658 5.04604,9.662764 2.83546,5.134106 6.27003,11.3588 7.63238,13.832654 l 2.477,4.497917 h 4.71947 4.71946 z m -0.52916,-20.50333 c -2.26132,-0.92554 -2.73991,-3.753619 -0.91166,-5.38716 l 1.09918,-0.982116 h 5.67264 c 4.65924,0 5.85031,0.104952 6.66715,0.58747 1.00194,0.591859 1.76019,1.804194 1.76019,2.814282 0,0.894415 -1.11398,2.507573 -2.01518,2.918188 -0.9788,0.445972 -11.20283,0.487074 -12.27232,0.04934 z m 26.43018,-0.0582 c -0.82052,-0.411642 -1.91213,-2.072527 -1.91213,-2.909323 0,-1.010088 0.75826,-2.222423 1.76019,-2.814282 0.81684,-0.482518 2.00791,-0.58747 6.66715,-0.58747 h 5.67265 l 1.09917,0.982116 c 1.46295,1.307144 1.53672,3.255811 0.17486,4.619033 -0.91672,0.917635 -0.97282,0.925868 -6.82625,1.001627 -3.55444,0.04601 -6.19376,-0.07002 -6.63564,-0.291701 z M -252.38731,19.0268 c 0,-1.953033 0.17153,-3.871473 0.38117,-4.263199 0.6188,-1.156235 2.6225,-1.822092 4.05771,-1.348431 1.94223,0.640993 2.2639,1.429415 2.2639,5.548864 v 3.637606 l 3.79236,-0.100129 3.79236,-0.10013 0.17639,-3.740206 c 0.19326,-4.098011 0.42987,-4.640721 2.29102,-5.254957 1.27341,-0.420263 3.3124,0.155896 3.92772,1.109862 0.16921,0.262332 0.38702,2.143843 0.48404,4.181134 l 0.17638,3.704167 3.79237,0.10013 3.79236,0.100129 v -3.562905 c 0,-1.959598 0.17153,-3.883408 0.38117,-4.275134 0.6188,-1.156235 2.6225,-1.822092 4.05771,-1.348431 1.94096,0.640577 2.2639,1.430388 2.2639,5.536928 v 3.625672 h 13.5429 13.5429 l 4.18418,-6.577474 c 3.35116,-5.267976 4.41019,-6.6726608 5.31938,-7.0555608 0.70139,-0.29538 2.49191,-0.47808 4.6855,-0.47808 h 3.55031 l -0.0994,-4.14514 -0.0994,-4.14513996 h -62.44167 -62.44167 l -0.0994,4.14513996 -0.0994,4.14514 h 3.5503 c 2.19359,0 3.98411,0.1827 4.6855,0.47808 0.90919,0.3829 1.96822,1.7875848 5.31938,7.0555608 l 4.18419,6.577474 h 13.5429 13.5429 z"
       id="path847" />
    <path
       style="fill:#333333;stroke-width:0.352778;fill-opacity:1"
       d="m -437.0415,64.916167 c -5.29773,-3.553771 -18.12535,-12.154949 -28.50583,-19.113731 -29.38739,-19.700456 -29.78872,-19.974402 -30.16251,-20.588416 -0.21888,-0.359554 -0.41972,-8.345558 -0.52916,-21.0406204 l -0.17639,-20.4611116 -16.75695,-0.176389 c -12.22346,-0.128669 -16.95925,-0.292393 -17.50471,-0.605162 -0.41127,-0.235829 -1.02638,-1.015909 -1.3669,-1.733515 -0.56356,-1.187606 -0.60157,-2.305117 -0.42343,-12.447617 0.10764,-6.128579 0.26522,-11.53975 0.35018,-12.024819 0.085,-0.48507 0.27225,-1.675695 0.41619,-2.645834 1.30365,-8.78643 5.18652,-18.60885 10.4316,-26.3886 2.7568,-4.08902 8.67206,-10.54952 12.57699,-13.73629 8.867,-7.23625 19.41711,-11.89978 31.32703,-13.84768 4.11115,-0.672392 14.16376,-0.684172 18.20641,-0.0213 12.11494,1.98637 22.21441,6.4202 31.27001,13.72804 2.61902,2.11354 8.0362,7.57701 10.08225,10.16839 6.8022,8.6152 12.16402,21.15539 13.14677,30.747631 l 0.23413,2.285185 3.47621,0.119832 c 3.38827,0.116801 3.50539,0.149006 4.62884,1.272914 l 1.15261,1.153079 0.0997,19.64809 c 0.0727,14.3285286 -0.0113,19.91612358 -0.31034,20.63808958 -0.22554,0.544502 -0.87791,1.38366202 -1.44972,1.86480502 -0.92661,0.779696 -1.36269,0.874802 -4.01119,0.874802 h -2.97154 V 26.589703 c 0,27.087362 -0.0126,27.248677 -2.53938,32.43631 -1.15768,2.376795 -2.04649,3.577174 -4.31022,5.821113 -1.56848,1.55478 -3.64709,3.252463 -4.61913,3.77263 -3.00363,1.607326 -7.06028,2.757855 -9.72395,2.757855 h -2.40539 z m 16.12056,-1.931572 c 4.10622,-1.592731 7.54074,-5.335574 8.78581,-9.574527 0.49138,-1.67294 0.5628,-5.019566 0.5628,-26.37014 V 2.5858996 h -2.83974 c -3.25294,0 -4.63162,-0.533062 -5.44457,-2.10512102 -0.77445,-1.49762998 -0.80547,-39.25110458 -0.0338,-41.09805858 0.70916,-1.69725 2.10737,-2.305156 5.30194,-2.305156 2.04035,0 2.66336,-0.114865 2.66336,-0.491046 0,-0.270076 -0.32011,-2.087817 -0.71135,-4.039426 -2.02111,-10.0819 -7.23145,-20.17221 -14.10533,-27.31629 l -2.99861,-3.11648 -20.14794,14.92398 c -11.08137,8.20819 -24.37133,18.019609 -29.53324,21.803151 l -9.38528,6.879167 -0.0119,27.7170106 -0.0119,27.7170074 20.72569,13.906684 c 11.39913,7.648678 25.72632,17.277603 31.8382,21.397614 10.80182,7.281503 11.15195,7.485084 12.52361,7.281966 0.77611,-0.114932 2.04611,-0.455267 2.82222,-0.756307 z m -50.09445,-77.194104 c -2.42528,-1.326861 -3.70417,-3.385358 -3.70417,-5.962224 0,-3.586268 2.85758,-6.522925 6.34728,-6.522925 2.68747,0 4.86094,1.296674 6.03749,3.601918 1.39687,2.736924 0.51923,6.335463 -2.01691,8.269874 -1.61014,1.228111 -4.97407,1.537744 -6.66369,0.613357 z m 68.2625,-5.958759 v -14.993057 h -4.93888 -4.93889 v 14.993057 14.9930556 h 4.93889 4.93888 z m -93.6625,-7.937501 v -4.056945 l -9.0767,-0.176388 -9.07669,-0.176389 -0.97747,-0.980765 c -0.93814,-0.941296 -0.97648,-1.118743 -0.95275,-4.409722 0.0658,-9.121917 3.70783,-19.58042 9.51157,-27.31345 12.33214,-16.43164 33.34603,-23.31744 53.02166,-17.37408 1.6823,0.50817 4.87858,1.80092 7.10285,2.87279 3.43368,1.65467 4.14649,1.88492 4.72222,1.52537 1.87718,-1.17232 5.87392,-4.30855 5.87392,-4.60925 0,-0.47048 -3.43214,-2.63133 -7.08234,-4.45901 -3.79875,-1.90204 -10.36773,-4.061 -14.96627,-4.91882 -4.80265,-0.89588 -15.19568,-0.90317 -19.75556,-0.0139 -14.57215,2.84202 -26.8489,10.43702 -35.42864,21.91791 -4.0296,5.39217 -6.17191,9.44662 -8.35697,15.81607 -2.32156,6.767371 -2.66485,9.222524 -2.85961,20.451548 l -0.17599,10.146396 14.23839,-0.09223 14.23838,-0.09223 z m 10.32009,-17.530502 c 4.4134,-3.238857 13.50123,-9.933167 20.19519,-14.876257 6.69396,-4.94308 13.07509,-9.63529 14.18029,-10.42713 1.10519,-0.79185 2.01801,-1.54397 2.02847,-1.67139 0.0334,-0.40667 -5.27985,-2.45525 -8.7744,-3.38307 -2.92313,-0.7761 -4.16036,-0.90173 -9.19825,-0.93404 -6.43398,-0.0413 -8.99608,0.32876 -13.75833,1.98704 -14.56092,5.07029 -25.40976,18.31659 -27.30709,33.341598 l -0.23389,1.852084 h 7.42183 7.42182 z"
       id="path863" />
  </g>
</svg>
